<svg width="146" height="30" viewBox="0 0 146 30" fill="none" xmlns="http://www.w3.org/2000/svg">
<path d="M5.15625 0.25L9.90625 10.625L14.6562 0.25H19.7656L12.2812 14.7188V23H7.53125V14.7188L0.03125 0.25H5.15625ZM19.8125 14.7188V14.3906C19.8125 13.151 19.9896 12.0104 20.3438 10.9688C20.6979 9.91667 21.2135 9.00521 21.8906 8.23438C22.5677 7.46354 23.401 6.86458 24.3906 6.4375C25.3802 6 26.5156 5.78125 27.7969 5.78125C29.0781 5.78125 30.2188 6 31.2188 6.4375C32.2188 6.86458 33.0573 7.46354 33.7344 8.23438C34.4219 9.00521 34.9427 9.91667 35.2969 10.9688C35.651 12.0104 35.8281 13.151 35.8281 14.3906V14.7188C35.8281 15.9479 35.651 17.0885 35.2969 18.1406C34.9427 19.1823 34.4219 20.0938 33.7344 20.875C33.0573 21.6458 32.224 22.2448 31.2344 22.6719C30.2448 23.099 29.1094 23.3125 27.8281 23.3125C26.5469 23.3125 25.4062 23.099 24.4062 22.6719C23.4167 22.2448 22.5781 21.6458 21.8906 20.875C21.2135 20.0938 20.6979 19.1823 20.3438 18.1406C19.9896 17.0885 19.8125 15.9479 19.8125 14.7188ZM24.3125 14.3906V14.7188C24.3125 15.4271 24.375 16.0885 24.5 16.7031C24.625 17.3177 24.8229 17.8594 25.0938 18.3281C25.375 18.7865 25.7396 19.1458 26.1875 19.4062C26.6354 19.6667 27.1823 19.7969 27.8281 19.7969C28.4531 19.7969 28.9896 19.6667 29.4375 19.4062C29.8854 19.1458 30.2448 18.7865 30.5156 18.3281C30.7865 17.8594 30.9844 17.3177 31.1094 16.7031C31.2448 16.0885 31.3125 15.4271 31.3125 14.7188V14.3906C31.3125 13.7031 31.2448 13.0573 31.1094 12.4531C30.9844 11.8385 30.7812 11.2969 30.5 10.8281C30.2292 10.349 29.8698 9.97396 29.4219 9.70312C28.974 9.43229 28.4323 9.29688 27.7969 9.29688C27.1615 9.29688 26.6198 9.43229 26.1719 9.70312C25.7344 9.97396 25.375 10.349 25.0938 10.8281C24.8229 11.2969 24.625 11.8385 24.5 12.4531C24.375 13.0573 24.3125 13.7031 24.3125 14.3906ZM48.5938 18.9531V6.09375H53.0938V23H48.8594L48.5938 18.9531ZM49.0938 15.4844L50.4219 15.4531C50.4219 16.5781 50.2917 17.625 50.0312 18.5938C49.7708 19.5521 49.3802 20.3854 48.8594 21.0938C48.3385 21.7917 47.6823 22.3385 46.8906 22.7344C46.099 23.1198 45.1667 23.3125 44.0938 23.3125C43.2708 23.3125 42.5104 23.1979 41.8125 22.9688C41.125 22.7292 40.5312 22.3594 40.0312 21.8594C39.5417 21.349 39.1562 20.6979 38.875 19.9062C38.6042 19.1042 38.4688 18.1406 38.4688 17.0156V6.09375H42.9688V17.0469C42.9688 17.5469 43.026 17.9688 43.1406 18.3125C43.2656 18.6562 43.4375 18.9375 43.6562 19.1562C43.875 19.375 44.1302 19.5312 44.4219 19.625C44.724 19.7188 45.0573 19.7656 45.4219 19.7656C46.349 19.7656 47.0781 19.5781 47.6094 19.2031C48.151 18.8281 48.5312 18.3177 48.75 17.6719C48.9792 17.0156 49.0938 16.2865 49.0938 15.4844ZM61.0312 9.78125V23H56.5312V6.09375H60.7656L61.0312 9.78125ZM66.125 5.98438L66.0469 10.1562C65.8281 10.125 65.5625 10.099 65.25 10.0781C64.9479 10.0469 64.6719 10.0312 64.4219 10.0312C63.7865 10.0312 63.2344 10.1146 62.7656 10.2812C62.3073 10.4375 61.9219 10.6719 61.6094 10.9844C61.3073 11.2969 61.0781 11.6771 60.9219 12.125C60.776 12.5729 60.6927 13.0833 60.6719 13.6562L59.7656 13.375C59.7656 12.2812 59.875 11.276 60.0938 10.3594C60.3125 9.43229 60.6302 8.625 61.0469 7.9375C61.474 7.25 61.9948 6.71875 62.6094 6.34375C63.224 5.96875 63.9271 5.78125 64.7188 5.78125C64.9688 5.78125 65.224 5.80208 65.4844 5.84375C65.7448 5.875 65.9583 5.92188 66.125 5.98438ZM91.125 19.3438V23H79.6719V19.3438H91.125ZM81.1875 0.25V23H76.5V0.25H81.1875ZM122.297 6.09375H126.375V22.4375C126.375 23.9792 126.031 25.2865 125.344 26.3594C124.667 27.4427 123.719 28.2604 122.5 28.8125C121.281 29.375 119.865 29.6562 118.25 29.6562C117.542 29.6562 116.792 29.5625 116 29.375C115.219 29.1875 114.469 28.8958 113.75 28.5C113.042 28.1042 112.448 27.6042 111.969 27L113.953 24.3438C114.474 24.9479 115.078 25.4167 115.766 25.75C116.453 26.0938 117.214 26.2656 118.047 26.2656C118.859 26.2656 119.547 26.1146 120.109 25.8125C120.672 25.5208 121.104 25.0885 121.406 24.5156C121.708 23.9531 121.859 23.2708 121.859 22.4688V10L122.297 6.09375ZM110.922 14.75V14.4219C110.922 13.1302 111.078 11.9583 111.391 10.9062C111.714 9.84375 112.167 8.93229 112.75 8.17188C113.344 7.41146 114.062 6.82292 114.906 6.40625C115.75 5.98958 116.703 5.78125 117.766 5.78125C118.891 5.78125 119.833 5.98958 120.594 6.40625C121.354 6.82292 121.979 7.41667 122.469 8.1875C122.958 8.94792 123.339 9.84896 123.609 10.8906C123.891 11.9219 124.109 13.0521 124.266 14.2812V15C124.109 16.1771 123.875 17.2708 123.562 18.2812C123.25 19.2917 122.839 20.1771 122.328 20.9375C121.818 21.6875 121.182 22.2708 120.422 22.6875C119.672 23.1042 118.776 23.3125 117.734 23.3125C116.693 23.3125 115.75 23.099 114.906 22.6719C114.073 22.2448 113.359 21.6458 112.766 20.875C112.172 20.1042 111.714 19.1979 111.391 18.1562C111.078 17.1146 110.922 15.9792 110.922 14.75ZM115.422 14.4219V14.75C115.422 15.4479 115.49 16.099 115.625 16.7031C115.76 17.3073 115.969 17.8438 116.25 18.3125C116.542 18.7708 116.901 19.1302 117.328 19.3906C117.766 19.6406 118.281 19.7656 118.875 19.7656C119.698 19.7656 120.37 19.5938 120.891 19.25C121.411 18.8958 121.802 18.4115 122.062 17.7969C122.323 17.1823 122.474 16.474 122.516 15.6719V13.625C122.495 12.9688 122.406 12.3802 122.25 11.8594C122.094 11.3281 121.875 10.875 121.594 10.5C121.312 10.125 120.948 9.83333 120.5 9.625C120.052 9.41667 119.521 9.3125 118.906 9.3125C118.312 9.3125 117.797 9.44792 117.359 9.71875C116.932 9.97917 116.573 10.3385 116.281 10.7969C116 11.2552 115.786 11.7969 115.641 12.4219C115.495 13.0365 115.422 13.7031 115.422 14.4219Z" fill="black"/>
<path d="M92.8125 14.7188V14.3906C92.8125 13.151 92.9896 12.0104 93.3438 10.9688C93.6979 9.91667 94.2135 9.00521 94.8906 8.23438C95.5677 7.46354 96.401 6.86458 97.3906 6.4375C98.3802 6 99.5156 5.78125 100.797 5.78125C102.078 5.78125 103.219 6 104.219 6.4375C105.219 6.86458 106.057 7.46354 106.734 8.23438C107.422 9.00521 107.943 9.91667 108.297 10.9688C108.651 12.0104 108.828 13.151 108.828 14.3906V14.7188C108.828 15.9479 108.651 17.0885 108.297 18.1406C107.943 19.1823 107.422 20.0938 106.734 20.875C106.057 21.6458 105.224 22.2448 104.234 22.6719C103.245 23.099 102.109 23.3125 100.828 23.3125C99.5469 23.3125 98.4062 23.099 97.4062 22.6719C96.4167 22.2448 95.5781 21.6458 94.8906 20.875C94.2135 20.0938 93.6979 19.1823 93.3438 18.1406C92.9896 17.0885 92.8125 15.9479 92.8125 14.7188ZM97.3125 14.3906V14.7188C97.3125 15.4271 97.375 16.0885 97.5 16.7031C97.625 17.3177 97.8229 17.8594 98.0938 18.3281C98.375 18.7865 98.7396 19.1458 99.1875 19.4062C99.6354 19.6667 100.182 19.7969 100.828 19.7969C101.453 19.7969 101.99 19.6667 102.438 19.4062C102.885 19.1458 103.245 18.7865 103.516 18.3281C103.786 17.8594 103.984 17.3177 104.109 16.7031C104.245 16.0885 104.312 15.4271 104.312 14.7188V14.3906C104.312 13.7031 104.245 13.0573 104.109 12.4531C103.984 11.8385 103.781 11.2969 103.5 10.8281C103.229 10.349 102.87 9.97396 102.422 9.70312C101.974 9.43229 101.432 9.29688 100.797 9.29688C100.161 9.29688 99.6198 9.43229 99.1719 9.70312C98.7344 9.97396 98.375 10.349 98.0938 10.8281C97.8229 11.2969 97.625 11.8385 97.5 12.4531C97.375 13.0573 97.3125 13.7031 97.3125 14.3906ZM129.156 14.7188V14.3906C129.156 13.151 129.333 12.0104 129.688 10.9688C130.042 9.91667 130.557 9.00521 131.234 8.23438C131.911 7.46354 132.745 6.86458 133.734 6.4375C134.724 6 135.859 5.78125 137.141 5.78125C138.422 5.78125 139.562 6 140.562 6.4375C141.562 6.86458 142.401 7.46354 143.078 8.23438C143.766 9.00521 144.286 9.91667 144.641 10.9688C144.995 12.0104 145.172 13.151 145.172 14.3906V14.7188C145.172 15.9479 144.995 17.0885 144.641 18.1406C144.286 19.1823 143.766 20.0938 143.078 20.875C142.401 21.6458 141.568 22.2448 140.578 22.6719C139.589 23.099 138.453 23.3125 137.172 23.3125C135.891 23.3125 134.75 23.099 133.75 22.6719C132.76 22.2448 131.922 21.6458 131.234 20.875C130.557 20.0938 130.042 19.1823 129.688 18.1406C129.333 17.0885 129.156 15.9479 129.156 14.7188ZM133.656 14.3906V14.7188C133.656 15.4271 133.719 16.0885 133.844 16.7031C133.969 17.3177 134.167 17.8594 134.438 18.3281C134.719 18.7865 135.083 19.1458 135.531 19.4062C135.979 19.6667 136.526 19.7969 137.172 19.7969C137.797 19.7969 138.333 19.6667 138.781 19.4062C139.229 19.1458 139.589 18.7865 139.859 18.3281C140.13 17.8594 140.328 17.3177 140.453 16.7031C140.589 16.0885 140.656 15.4271 140.656 14.7188V14.3906C140.656 13.7031 140.589 13.0573 140.453 12.4531C140.328 11.8385 140.125 11.2969 139.844 10.8281C139.573 10.349 139.214 9.97396 138.766 9.70312C138.318 9.43229 137.776 9.29688 137.141 9.29688C136.505 9.29688 135.964 9.43229 135.516 9.70312C135.078 9.97396 134.719 10.349 134.438 10.8281C134.167 11.2969 133.969 11.8385 133.844 12.4531C133.719 13.0573 133.656 13.7031 133.656 14.3906Z" fill="#666666"/>
</svg>
